<svg width="24" height="24" viewBox="0 0 24 24" fill="none" xmlns="http://www.w3.org/2000/svg">
    <path fill-rule="evenodd" clip-rule="evenodd" d="M13.6009 20.7273V12.766H16.3174L16.725 9.66246H13.6009V7.68128C13.6009 6.78301 13.8535 6.17085 15.165 6.17085L16.835 6.17017V3.39424C16.5462 3.35733 15.5548 3.27273 14.401 3.27273C11.9917 3.27273 10.3422 4.71881 10.3422 7.37391V9.66246H7.61737V12.766H10.3422V20.7273H13.6009Z" fill="#2C59CE"/>
    <mask id="mask0" mask-type="alpha" maskUnits="userSpaceOnUse" x="7" y="3" width="10" height="18">
        <path fill-rule="evenodd" clip-rule="evenodd" d="M13.6009 20.7273V12.766H16.3174L16.725 9.66246H13.6009V7.68128C13.6009 6.78301 13.8535 6.17085 15.165 6.17085L16.835 6.17017V3.39424C16.5462 3.35733 15.5548 3.27273 14.401 3.27273C11.9917 3.27273 10.3422 4.71881 10.3422 7.37391V9.66246H7.61737V12.766H10.3422V20.7273H13.6009Z" fill="white"/>
    </mask>
    <g mask="url(#mask0)">
    </g>
</svg>
