<svg width="24" height="24" viewBox="0 0 24 24" fill="none" xmlns="http://www.w3.org/2000/svg">
    <path fill-rule="evenodd" clip-rule="evenodd" d="M12 10.4727V13.5273H16.3207C15.6899 15.305 13.9916 16.5818 12 16.5818C9.4739 16.5818 7.41819 14.5261 7.41819 12C7.41819 9.47389 9.4739 7.41818 12 7.41818C13.0951 7.41818 14.1489 7.81069 14.9675 8.52393L16.9743 6.2208C15.5998 5.02342 13.8343 4.36364 12 4.36364C7.78932 4.36364 4.36365 7.78931 4.36365 12C4.36365 16.2107 7.78932 19.6364 12 19.6364C16.2107 19.6364 19.6364 16.2107 19.6364 12V10.4727H12Z" fill="#CA2B2B"/>
    <mask id="mask0" mask-type="alpha" maskUnits="userSpaceOnUse" x="4" y="4" width="16" height="16">
        <path fill-rule="evenodd" clip-rule="evenodd" d="M12 10.4727V13.5273H16.3207C15.6899 15.305 13.9916 16.5818 12 16.5818C9.4739 16.5818 7.41819 14.5261 7.41819 12C7.41819 9.47389 9.4739 7.41818 12 7.41818C13.0951 7.41818 14.1489 7.81069 14.9675 8.52393L16.9743 6.2208C15.5998 5.02342 13.8343 4.36364 12 4.36364C7.78932 4.36364 4.36365 7.78931 4.36365 12C4.36365 16.2107 7.78932 19.6364 12 19.6364C16.2107 19.6364 19.6364 16.2107 19.6364 12V10.4727H12Z" fill="white"/>
    </mask>
    <g mask="url(#mask0)">
    </g>
</svg>
