<svg width="24" height="24" viewBox="0 0 24 24" fill="none" xmlns="http://www.w3.org/2000/svg">
    <g clip-path="url(#clip0)">
        <path d="M7.50093 21.755C16.5581 21.755 21.5109 14.2515 21.5109 7.74506C21.5109 7.53193 21.5065 7.31971 21.497 7.10859C22.4583 6.41352 23.294 5.54615 23.9532 4.55884C23.071 4.95105 22.1214 5.21491 21.1255 5.33411C22.1421 4.72437 22.9227 3.76013 23.2907 2.61059C22.3393 3.17456 21.2857 3.58435 20.164 3.80572C19.2655 2.84863 17.9861 2.25006 16.5696 2.25006C13.8505 2.25006 11.6453 4.4552 11.6453 7.17341C11.6453 7.55994 11.6886 7.93568 11.773 8.29621C7.68056 8.09022 4.05158 6.13099 1.62323 3.15149C1.20044 3.87915 0.956545 4.72455 0.956545 5.62653C0.956545 7.33472 1.82593 8.84297 3.14777 9.72517C2.33991 9.70027 1.58112 9.47853 0.917727 9.10939C0.916994 9.13008 0.916994 9.15022 0.916994 9.17219C0.916994 11.557 2.6142 13.5481 4.8675 13.9992C4.45368 14.1118 4.01826 14.1724 3.5691 14.1724C3.25233 14.1724 2.94361 14.1413 2.6435 14.0836C3.27045 16.0401 5.08833 17.4638 7.24348 17.5037C5.55818 18.8246 3.43507 19.6114 1.12775 19.6114C0.730775 19.6114 0.338563 19.5887 -0.046875 19.5433C2.13227 20.94 4.7201 21.7552 7.50111 21.7552" fill="#1DA1F2"/>
    </g>
    <defs>
        <clipPath id="clip0">
            <rect width="24" height="24" fill="white"/>
        </clipPath>
    </defs>
</svg>
